<svg width="89" height="89" viewBox="0 0 89 89" fill="none" xmlns="http://www.w3.org/2000/svg">
<circle cx="44.5" cy="44.5" r="44.5" fill="#225947"/>
<path d="M45.0717 58.9736C44.9622 58.9667 44.8502 58.969 44.7358 58.9876C44.7285 58.9899 44.7188 58.9899 44.7115 58.9923C44.6482 58.9946 44.5825 59.0016 44.5168 59.0016C41.7684 59.0016 38.8637 56.9839 36.5468 53.4629C36.3012 53.0905 36.0676 52.7042 35.8432 52.3109C37.842 52.6996 40.707 53.0882 44.208 53.0882C44.2092 53.0882 44.2104 53.0882 44.2113 53.0882C44.2123 53.0882 44.2133 53.0882 44.2143 53.0882C47.924 53.0882 51.1414 52.5088 53.3659 51.9549C53.0836 52.4762 52.7866 52.9812 52.4678 53.4652C50.3164 56.7465 47.649 58.7223 45.0717 58.9736V58.9736ZM37.8532 45.518C37.8603 45.5226 37.868 45.5249 37.8753 45.5296C37.8965 45.5436 37.9165 45.5575 37.9386 45.5692C40.2354 46.8654 41.4933 48.8155 42.1436 50.2165C38.2944 50.0326 35.5051 49.3787 34.3204 49.0529C33.4664 46.7862 32.9716 44.4219 32.9507 42.2995L37.8532 45.518ZM44.7139 40.3493L49.3088 44.0937C47.1817 46.1626 45.9819 48.8225 45.4489 50.2421C45.4075 50.2444 45.3662 50.2468 45.3248 50.2468C44.804 48.7644 43.5737 46.1649 40.9411 44.1379L44.7139 40.3493ZM54.8578 48.5805C53.8502 48.9156 51.6428 49.5719 48.7466 49.9582C49.4451 48.4688 50.6377 46.4814 52.4386 45.2131C52.4459 45.2108 52.4484 45.2038 52.4557 45.2014C52.463 45.1945 52.4703 45.1921 52.4776 45.1875L56.0454 42.5066C55.9992 44.4265 55.5757 46.5326 54.8578 48.5805V48.5805ZM54.9673 54.9639C57.4911 51.1171 59 46.3301 59 42.1599C59 41.3291 58.927 40.4727 58.781 39.5418C58.7006 39.0461 58.3526 38.6272 57.8659 38.441C57.3767 38.2548 56.8218 38.334 56.4105 38.6435L51.6038 42.2553L45.5633 37.3356C44.967 36.8516 44.0782 36.8958 43.5384 37.438L38.4869 42.5112L32.5126 38.59C32.0938 38.313 31.5564 38.2642 31.0903 38.4573C30.6243 38.6505 30.295 39.0601 30.2193 39.5418C30.0718 40.4727 30 41.3267 30 42.1599C30 46.3278 31.5143 51.1148 34.05 54.9663C36.7497 59.0667 40.1438 61.4567 43.6849 61.7825C43.9848 64.6077 43.6545 67.654 43.1763 70.8515C43.1634 70.8841 43.149 70.9143 43.1361 70.9469C42.2288 69.8811 41.0261 68.9735 39.5352 68.2497C36.7415 66.893 33.9091 66.6742 33.7898 66.6673C32.9811 66.6091 32.2726 67.1885 32.2094 67.9635C32.1461 68.7384 32.753 69.418 33.5637 69.4785C33.9332 69.5087 42.5859 70.2511 42.2089 77.1535C41.9653 78.9082 41.764 80.6977 41.6742 82.5222C41.6357 83.3018 42.2644 83.9604 43.0784 83.9977C43.1018 84 43.1254 84 43.1488 84C43.9317 84 44.5849 83.4112 44.6214 82.6549C44.7699 79.6319 45.2469 76.6369 45.7069 73.7395C45.8237 73.0158 45.9381 72.299 46.0452 71.5869C48.7515 65.2826 54.8845 64.4099 55.1425 64.375C55.9505 64.2773 56.5224 63.5698 56.4202 62.7972C56.3156 62.0246 55.5782 61.4777 54.7702 61.5777C54.5244 61.608 50.2848 62.1712 46.7145 65.5758C46.7802 64.2191 46.7656 62.8879 46.6293 61.5754C49.7007 60.8517 52.6041 58.5687 54.9673 54.9639" fill="#EC9A3A"/>
<path d="M74.4682 34.026C70.0219 34.7927 63.228 30.9002 57.9869 26.7323C61.166 25.5337 67.9057 23.3573 73.7743 23.8794C77.4997 24.2093 78.9244 26.6967 79.013 28.7261C79.1114 30.9595 77.7433 33.4635 74.4682 34.026ZM54.7388 30.2641C51.9854 31.0639 37.0245 31.0639 34.2723 30.2641C34.1155 29.4405 34.5865 27.0741 35.3584 24.7505H38.5346H50.4647H53.6512C54.4239 27.0741 54.8938 29.4405 54.7388 30.2641ZM14.5316 34.026C11.2565 33.4635 9.88932 30.9595 9.98701 28.7261C10.0761 26.6967 11.5015 24.2093 15.2259 23.8794C15.8374 23.8248 16.4582 23.7987 17.0837 23.7987C22.4619 23.7987 28.165 25.6572 31.0129 26.7323C25.7732 30.8978 18.9799 34.7903 14.5316 34.026ZM38.8527 20.6088C38.8527 18.7266 41.4389 17.1364 44.5001 17.1364C45.3884 17.1364 46.2374 17.2717 46.9952 17.5066C47.0026 17.509 47.0124 17.5114 47.0198 17.5138C48.8628 18.0929 50.1571 19.2773 50.1571 20.6088C50.1571 21.1025 49.9726 21.5321 49.7437 21.8738H39.2582C39.0338 21.5344 38.8527 21.1048 38.8527 20.6088V20.6088ZM81.9928 28.605C81.8427 25.1659 79.328 21.4822 74.0474 21.0147C67.4382 20.426 60.1941 22.7758 56.5843 24.1737C56.3358 23.3952 56.1389 22.866 56.1242 22.8256C55.9126 22.256 55.3515 21.8738 54.7216 21.8738H52.9647C53.0779 21.4609 53.1394 21.0384 53.1394 20.6088C53.1394 18.3231 51.5745 16.3579 49.1729 15.2424C49.9332 12.4512 51.9436 11.853 52.0174 11.8317C52.8171 11.6347 53.2969 10.8514 53.0927 10.0824C52.8909 9.31342 52.0789 8.84821 51.2792 9.04521C51.1119 9.08556 47.5538 10.0183 46.3186 14.395C45.7329 14.3072 45.1251 14.2597 44.5001 14.2597C43.8744 14.2597 43.2666 14.3072 42.682 14.395C41.4475 10.0183 37.8879 9.08556 37.7208 9.04521C36.9226 8.84821 36.1106 9.31342 35.9064 10.0824C35.7026 10.8514 36.1839 11.6347 36.9819 11.8317C37.0048 11.8388 39.0592 12.38 39.8284 15.2424C37.4319 16.3579 35.8699 18.3255 35.8699 20.6088C35.8699 21.0384 35.9322 21.4609 36.0424 21.8738H34.2895C33.66 21.8738 33.0985 22.256 32.8859 22.8256C32.8712 22.866 32.675 23.3952 32.4248 24.1761C28.819 22.7805 21.5685 20.4237 14.9521 21.0147C9.67279 21.4822 7.15778 25.1659 7.00719 28.605C6.8593 31.9754 8.98727 35.996 14.0084 36.8576C14.567 36.9549 15.1384 37 15.7206 37C21.0788 37 27.2695 33.1811 31.2885 30.2C31.35 31.2467 31.6691 31.9848 32.2575 32.4714C32.6377 32.7847 33.7942 33.7365 44.5051 33.7365C55.2162 33.7365 56.3727 32.7847 56.7541 32.4714C56.7541 32.4714 56.7565 32.4714 56.7565 32.469C57.3422 31.9848 57.6596 31.2491 57.7211 30.2071C61.7418 33.1882 67.9254 37 73.2797 37C73.8629 37 74.4338 36.9549 74.9923 36.8576C80.012 35.996 82.1405 31.9754 81.9928 28.605" fill="#EC9A3A"/>
</svg>
