<svg width="1150" height="1082" viewBox="0 0 1150 1082" fill="none" xmlns="http://www.w3.org/2000/svg">
<path d="M605.6 534.7C622.8 556.2 641.9 579.8 655.3 596.3C670.2 551.5 650.3 488.9 628.1 442.1C622.8 471.2 615.4 502 605.6 534.7Z" fill="#EBA13D"/>
<path d="M500.8 368.9C478.7 390.1 458.9 429.7 473.8 491.6C487.2 490.5 506.2 489 523.4 487.4C513.6 443.4 506.2 404.1 500.8 368.9Z" fill="#EBA13D"/>
<path opacity="0.2" d="M548.4 589.4C424.8 114.8 526.5 74.5 564.9 58.3C603.3 118.9 704.9 276.5 581.2 608.3L548.4 589.4Z" fill="url(#paint0_linear)"/>
<path opacity="0.1" d="M584.8 562.1C461.2 87.6 562.8 47.2 601.3 31C639.7 91.6 741.3 249.2 617.6 581L584.8 562.1Z" fill="url(#paint1_linear)"/>
<path opacity="0.15" d="M581.199 608.3C704.899 276.5 603.299 118.9 564.899 58.3V598.9L581.199 608.3Z" fill="url(#paint2_linear)"/>
<path opacity="0.1" d="M601.7 225.4C601.7 254.3 584.7 267.9 563.7 255.8C542.7 243.7 525.7 210.4 525.7 181.5C525.7 152.6 542.7 139 563.7 151.1C584.7 163.2 601.7 196.5 601.7 225.4Z" fill="white"/>
<path opacity="0.1" d="M594.2 715.7C585.5 701.5 581.3 683.5 577.6 667.7C573.3 649.5 569.7 634 560.7 630.1C550.4 625.6 545.8 637 539.3 652.8C535.5 662.1 531 673.1 524.4 683.2C517.3 675.7 509.8 669.5 501.9 665C468.8 645.9 441.2 662.4 434.7 701.8C430.2 698.4 425.7 695.3 421.1 692.6C368 662 325 696.7 325 770.3C325 843.8 368 928.2 421 958.8C472.5 988.5 514.6 956.6 517 887.5C526.7 905.5 539.6 920.6 553.9 928.8C557.6 930.9 561.2 932.5 564.6 933.5C585.2 978.8 615.9 1017.8 650.2 1037.6C712.2 1073.4 762.5 1033 762.6 947.4C762.6 861.8 712.3 763.3 650.3 727.5C629.8 715.7 610.7 712.1 594.2 715.7Z" fill="url(#paint3_linear)"/>
<path opacity="0.3" d="M694.1 388.3L964.8 544.6L964.9 685.7L718.1 543.2L694.2 551L694.1 388.3Z" fill="url(#paint4_linear)"/>
<path d="M886.1 569.4V531.1L988.3 590.1V628.4L886.1 569.4Z" fill="#EBA13D"/>
<path opacity="0.1" d="M763.7 462.8L823 497V509.4L763.7 475.2V462.8Z" fill="white"/>
<path opacity="0.1" d="M763.8 487.6L870.8 549.4V561.8L763.8 500V487.6Z" fill="white"/>
<path opacity="0.15" d="M763.8 512.4L902.3 592.4V604.8L763.8 524.8V512.4Z" fill="white"/>
<path d="M749.1 467.3C749.1 478.9 742.2 484.4 733.7 479.5C725.2 474.6 718.3 461.2 718.3 449.6C718.3 438 725.2 432.5 733.7 437.4C742.3 442.3 749.1 455.7 749.1 467.3Z" fill="#EBA13D"/>
<path opacity="0.3" d="M460.599 189L189.899 32.8L189.999 173.9L436.799 316.3L460.699 351.7L460.599 189Z" fill="url(#paint5_linear)"/>
<path d="M161 87.8V49.5L263.2 108.5V146.8L161 87.8Z" fill="#EBA13D"/>
<path opacity="0.15" d="M391 183.2L331.7 149V161.4L391 195.6V183.2Z" fill="white"/>
<path opacity="0.15" d="M391 208L276.7 142V154.4L391 220.4V208Z" fill="white"/>
<path opacity="0.15" d="M391 232.8L252.5 152.8V165.2L391 245.2V232.8Z" fill="white"/>
<path d="M405.6 204.5C405.6 216.1 412.5 229.5 421 234.4C429.5 239.3 436.4 233.8 436.4 222.2C436.4 210.6 429.5 197.2 421 192.3C412.5 187.5 405.6 192.9 405.6 204.5Z" fill="#EBA13D"/>
<path opacity="0.2" d="M424.599 339.6L262.899 246.3V330.5L424.599 423.8V339.6Z" fill="url(#paint6_linear)"/>
<path opacity="0.15" d="M304.3 290.4L359.7 322.4V332.5L304.3 300.5V290.4Z" fill="white"/>
<path opacity="0.15" d="M304.3 310.7L407.9 370.5V380.7L304.3 320.9V310.7Z" fill="white"/>
<path d="M295.799 293.4C295.799 300.3 291.699 303.6 286.599 300.7C281.499 297.8 277.399 289.8 277.399 282.8C277.399 275.9 281.499 272.6 286.599 275.5C291.599 278.5 295.799 286.5 295.799 293.4Z" fill="#EBA13D"/>
<path opacity="0.2" d="M904.8 403.2L743.1 309.9V394.1L904.8 487.5V403.2Z" fill="url(#paint7_linear)"/>
<path opacity="0.15" d="M784.5 354.1L839.9 386.1V396.2L784.5 364.2V354.1Z" fill="white"/>
<path opacity="0.15" d="M784.6 374.4L888.2 434.2V444.4L784.6 384.6V374.4Z" fill="white"/>
<path d="M776 357.1C776 364 771.9 367.3 766.8 364.4C761.7 361.5 757.6 353.5 757.6 346.5C757.6 339.6 761.7 336.3 766.8 339.2C771.9 342.2 776 350.2 776 357.1Z" fill="#EBA13D"/>
<defs>
<linearGradient id="paint0_linear" x1="708.994" y1="75.1267" x2="398.143" y2="613.68" gradientUnits="userSpaceOnUse">
<stop stop-color="white"/>
<stop offset="1" stop-color="white" stop-opacity="0"/>
</linearGradient>
<linearGradient id="paint1_linear" x1="745.385" y1="47.8343" x2="434.534" y2="586.387" gradientUnits="userSpaceOnUse">
<stop stop-color="white"/>
<stop offset="1" stop-color="white" stop-opacity="0"/>
</linearGradient>
<linearGradient id="paint2_linear" x1="651.026" y1="192.562" x2="411.063" y2="625.542" gradientUnits="userSpaceOnUse">
<stop stop-color="white" stop-opacity="0"/>
<stop offset="1" stop-color="white"/>
</linearGradient>
<linearGradient id="paint3_linear" x1="628.452" y1="714.919" x2="494.189" y2="947.532" gradientUnits="userSpaceOnUse">
<stop stop-color="white"/>
<stop offset="1" stop-color="white" stop-opacity="0"/>
</linearGradient>
<linearGradient id="paint4_linear" x1="810.41" y1="392.869" x2="845.41" y2="676.735" gradientUnits="userSpaceOnUse">
<stop stop-color="white"/>
<stop offset="1" stop-color="white" stop-opacity="0"/>
</linearGradient>
<linearGradient id="paint5_linear" x1="401.566" y1="132.5" x2="261.784" y2="241.945" gradientUnits="userSpaceOnUse">
<stop stop-color="white"/>
<stop offset="1" stop-color="white" stop-opacity="0"/>
</linearGradient>
<linearGradient id="paint6_linear" x1="361.969" y1="303.427" x2="325.503" y2="366.604" gradientUnits="userSpaceOnUse">
<stop stop-color="white"/>
<stop offset="1" stop-color="white" stop-opacity="0"/>
</linearGradient>
<linearGradient id="paint7_linear" x1="842.231" y1="367.104" x2="805.765" y2="430.281" gradientUnits="userSpaceOnUse">
<stop stop-color="white"/>
<stop offset="1" stop-color="white" stop-opacity="0"/>
</linearGradient>
</defs>
</svg>
