<svg width="75" height="75" viewBox="0 0 75 75" fill="none" xmlns="http://www.w3.org/2000/svg">
<path d="M38.0717 49.9736C37.9622 49.9667 37.8502 49.969 37.7358 49.9876C37.7285 49.9899 37.7188 49.9899 37.7115 49.9923C37.6482 49.9946 37.5825 50.0016 37.5168 50.0016C34.7684 50.0016 31.8637 47.9839 29.5468 44.4629C29.3012 44.0905 29.0676 43.7042 28.8432 43.3109C30.842 43.6996 33.707 44.0882 37.208 44.0882C37.2092 44.0882 37.2104 44.0882 37.2113 44.0882C37.2123 44.0882 37.2133 44.0882 37.2143 44.0882C40.924 44.0882 44.1414 43.5088 46.3659 42.9549C46.0836 43.4762 45.7866 43.9812 45.4678 44.4652C43.3164 47.7465 40.649 49.7223 38.0717 49.9736V49.9736ZM30.8532 36.518C30.8603 36.5226 30.868 36.5249 30.8753 36.5296C30.8965 36.5436 30.9165 36.5575 30.9386 36.5692C33.2354 37.8654 34.4933 39.8155 35.1436 41.2165C31.2944 41.0326 28.5051 40.3787 27.3204 40.0529C26.4664 37.7862 25.9716 35.4219 25.9507 33.2995L30.8532 36.518ZM37.7139 31.3493L42.3088 35.0937C40.1817 37.1626 38.9819 39.8225 38.4489 41.2421C38.4075 41.2444 38.3662 41.2468 38.3248 41.2468C37.804 39.7644 36.5737 37.1649 33.9411 35.1379L37.7139 31.3493ZM47.8578 39.5805C46.8502 39.9156 44.6428 40.5719 41.7466 40.9582C42.4451 39.4688 43.6377 37.4814 45.4386 36.2131C45.4459 36.2108 45.4484 36.2038 45.4557 36.2014C45.463 36.1945 45.4703 36.1921 45.4776 36.1875L49.0454 33.5066C48.9992 35.4265 48.5757 37.5326 47.8578 39.5805V39.5805ZM47.9673 45.9639C50.4911 42.1171 52 37.3301 52 33.1599C52 32.3291 51.927 31.4727 51.781 30.5418C51.7006 30.0461 51.3526 29.6272 50.8659 29.441C50.3767 29.2548 49.8218 29.334 49.4105 29.6435L44.6038 33.2553L38.5633 28.3356C37.967 27.8516 37.0782 27.8958 36.5384 28.438L31.4869 33.5112L25.5126 29.59C25.0938 29.313 24.5564 29.2642 24.0903 29.4573C23.6243 29.6505 23.295 30.0601 23.2193 30.5418C23.0718 31.4727 23 32.3267 23 33.1599C23 37.3278 24.5143 42.1148 27.05 45.9663C29.7497 50.0667 33.1438 52.4567 36.6849 52.7825C36.9848 55.6077 36.6545 58.654 36.1763 61.8515C36.1634 61.8841 36.149 61.9143 36.1361 61.9469C35.2288 60.8811 34.0261 59.9735 32.5352 59.2497C29.7415 57.893 26.9091 57.6742 26.7898 57.6673C25.9811 57.6091 25.2726 58.1885 25.2094 58.9635C25.1461 59.7384 25.753 60.418 26.5637 60.4785C26.9332 60.5087 35.5859 61.2511 35.2089 68.1535C34.9653 69.9082 34.764 71.6977 34.6742 73.5222C34.6357 74.3018 35.2644 74.9604 36.0784 74.9977C36.1018 75 36.1254 75 36.1488 75C36.9317 75 37.5849 74.4112 37.6214 73.6549C37.7699 70.6319 38.2469 67.6369 38.7069 64.7395C38.8237 64.0158 38.9381 63.299 39.0452 62.5869C41.7515 56.2826 47.8845 55.4099 48.1425 55.375C48.9505 55.2773 49.5224 54.5698 49.4202 53.7972C49.3156 53.0246 48.5782 52.4777 47.7702 52.5777C47.5244 52.608 43.2848 53.1712 39.7145 56.5758C39.7802 55.2191 39.7656 53.8879 39.6293 52.5754C42.7007 51.8517 45.6041 49.5687 47.9673 45.9639" fill="#EC9A3A"/>
<path d="M67.4682 25.026C63.0219 25.7927 56.228 21.9002 50.9869 17.7323C54.166 16.5337 60.9057 14.3573 66.7743 14.8794C70.4997 15.2093 71.9244 17.6967 72.013 19.7261C72.1114 21.9595 70.7433 24.4635 67.4682 25.026ZM47.7388 21.2641C44.9854 22.0639 30.0245 22.0639 27.2723 21.2641C27.1155 20.4405 27.5865 18.0741 28.3584 15.7505H31.5346H43.4647H46.6512C47.4239 18.0741 47.8938 20.4405 47.7388 21.2641ZM7.53156 25.026C4.25646 24.4635 2.88932 21.9595 2.98701 19.7261C3.07608 17.6967 4.50153 15.2093 8.22595 14.8794C8.83742 14.8248 9.45824 14.7987 10.0837 14.7987C15.4619 14.7987 21.165 16.6572 24.0129 17.7323C18.7732 21.8978 11.9799 25.7903 7.53156 25.026ZM31.8527 11.6088C31.8527 9.72662 34.4389 8.13639 37.5001 8.13639C38.3884 8.13639 39.2374 8.27167 39.9952 8.50665C40.0026 8.50902 40.0124 8.51141 40.0198 8.51378C41.8628 9.09291 43.1571 10.2773 43.1571 11.6088C43.1571 12.1025 42.9726 12.5321 42.7437 12.8738H32.2582C32.0338 12.5344 31.8527 12.1048 31.8527 11.6088V11.6088ZM74.9928 19.605C74.8427 16.1659 72.328 12.4822 67.0474 12.0147C60.4382 11.426 53.1941 13.7758 49.5843 15.1737C49.3358 14.3952 49.1389 13.866 49.1242 13.8256C48.9126 13.256 48.3515 12.8738 47.7216 12.8738H45.9647C46.0779 12.4609 46.1394 12.0384 46.1394 11.6088C46.1394 9.32312 44.5745 7.3579 42.1729 6.24237C42.9332 3.45116 44.9436 2.85304 45.0174 2.83168C45.8171 2.63468 46.2969 1.85143 46.0927 1.08242C45.8909 0.313419 45.0789 -0.151786 44.2792 0.045212C44.1119 0.0855611 40.5538 1.01835 39.3186 5.39503C38.7329 5.30721 38.1251 5.25974 37.5001 5.25974C36.8744 5.25974 36.2666 5.30721 35.682 5.39503C34.4475 1.01835 30.8879 0.0855611 30.7208 0.045212C29.9226 -0.151786 29.1106 0.313419 28.9064 1.08242C28.7026 1.85143 29.1839 2.63468 29.9819 2.83168C30.0048 2.8388 32.0592 3.37996 32.8284 6.24237C30.4319 7.3579 28.8699 9.3255 28.8699 11.6088C28.8699 12.0384 28.9322 12.4609 29.0424 12.8738H27.2895C26.66 12.8738 26.0985 13.256 25.8859 13.8256C25.8712 13.866 25.675 14.3952 25.4248 15.1761C21.819 13.7805 14.5685 11.4237 7.95208 12.0147C2.67279 12.4822 0.157777 16.1659 0.00718608 19.605C-0.140698 22.9754 1.98727 26.996 7.00844 27.8576C7.567 27.9549 8.13836 28 8.72055 28C14.0788 28 20.2695 24.1811 24.2885 21.2C24.35 22.2467 24.6691 22.9848 25.2575 23.4714C25.6377 23.7847 26.7942 24.7365 37.5051 24.7365C48.2162 24.7365 49.3727 23.7847 49.7541 23.4714C49.7541 23.4714 49.7565 23.4714 49.7565 23.469C50.3422 22.9848 50.6596 22.2491 50.7211 21.2071C54.7418 24.1882 60.9254 28 66.2797 28C66.8629 28 67.4338 27.9549 67.9923 27.8576C73.012 26.996 75.1405 22.9754 74.9928 19.605" fill="#EC9A3A"/>
</svg>
